HIERARCHY
ROOT Hips
{
	OFFSET 0.000000 0.000000 0.000000
	CHANNELS 6 Xposition Yposition Zposition Xrotation Yrotation Zrotation
	JOINT LeftUpLeg_virtual
	{
		OFFSET 0.000000 0.000000 0.000000
		CHANNELS 3 Xrotation Yrotation Zrotation
		JOINT LeftUpLeg
		{
			OFFSET 11.394100 -6.187798 -0.413800
			CHANNELS 3 Xrotation Yrotation Zrotation
			JOINT LeftLeg
			{
				OFFSET 0.430247 -32.302673 3.732800
				CHANNELS 3 Xrotation Yrotation Zrotation
				JOINT LeftFoot
				{
					OFFSET -0.430247 -48.264931 -6.423300
					CHANNELS 3 Xrotation Yrotation Zrotation
					JOINT LeftToeBase
					{
						OFFSET 4.230900 -16.068199 23.438400
						CHANNELS 3 Xrotation Yrotation Zrotation
						JOINT LeftToe_End
						{
							OFFSET 4.510700 0.695400 19.974600
							CHANNELS 3 Xrotation Yrotation Zrotation
							End Site
							{
								OFFSET 0 0 0
							}
						}
					}
				}
			}
		}
	}
	JOINT RightUpLeg_virtual
	{
		OFFSET 0.000000 0.000000 0.000000
		CHANNELS 3 Xrotation Yrotation Zrotation
		JOINT RightUpLeg
		{
			OFFSET -11.333700 -6.187798 -0.413800
			CHANNELS 3 Xrotation Yrotation Zrotation
			JOINT RightLeg
			{
				OFFSET -0.430392 -32.302628 3.733000
				CHANNELS 3 Xrotation Yrotation Zrotation
				JOINT RightFoot
				{
					OFFSET 0.430392 -48.264973 -6.423500
					CHANNELS 3 Xrotation Yrotation Zrotation
					JOINT RightToeBase
					{
						OFFSET -4.230900 -16.068199 23.438400
						CHANNELS 3 Xrotation Yrotation Zrotation
						JOINT RightToe_End
						{
							OFFSET -4.510700 0.695400 19.974600
							CHANNELS 3 Xrotation Yrotation Zrotation
							End Site
							{
								OFFSET 0 0 0
							}
						}
					}
				}
			}
		}
	}
	JOINT Spine_virtual
	{
		OFFSET 0.000000 0.000000 0.000000
		CHANNELS 3 Xrotation Yrotation Zrotation
		JOINT Spine
		{
			OFFSET -0.002400 12.777504 0.315300
			CHANNELS 3 Xrotation Yrotation Zrotation
			JOINT Spine1
			{
				OFFSET -0.002067 5.816869 0.032633
				CHANNELS 3 Xrotation Yrotation Zrotation
				JOINT Spine1_split
				{
					OFFSET -0.002067 5.816869 0.032633
					CHANNELS 3 Xrotation Yrotation Zrotation
					JOINT Spine2
					{
						OFFSET -0.002067 5.816869 0.032633
						CHANNELS 3 Xrotation Yrotation Zrotation
						JOINT Neck_virtual
						{
							OFFSET 0.000000 0.000000 0.000000
							CHANNELS 3 Xrotation Yrotation Zrotation
							JOINT Neck
							{
								OFFSET -0.003700 21.199493 -0.826900
								CHANNELS 3 Xrotation Yrotation Zrotation
								JOINT Head
								{
									OFFSET 0.000000 20.442200 4.834800
									CHANNELS 3 Xrotation Yrotation Zrotation
									JOINT HeadTop_End
									{
										OFFSET 0.000000 34.668396 4.968400
										CHANNELS 3 Xrotation Yrotation Zrotation
										End Site
										{
											OFFSET 0 0 0
										}
									}
								}
							}
						}
						JOINT LeftShoulder_virtual
						{
							OFFSET 0.000000 0.000000 0.000000
							CHANNELS 3 Xrotation Yrotation Zrotation
							JOINT LeftShoulder
							{
								OFFSET 3.288150 8.794197 -1.372250
								CHANNELS 3 Xrotation Yrotation Zrotation
								JOINT LeftShoulder_split
								{
									OFFSET 3.288150 8.794197 -1.372250
									CHANNELS 3 Xrotation Yrotation Zrotation
									JOINT LeftArm
									{
										OFFSET 11.953299 -2.279007 -0.146200
										CHANNELS 3 Xrotation Yrotation Zrotation
										JOINT LeftForeArm
										{
											OFFSET 18.448900 0.000000 0.000000
											CHANNELS 3 Xrotation Yrotation Zrotation
											JOINT LeftHand
											{
												OFFSET 29.527798 0.000000 0.000000
												CHANNELS 3 Xrotation Yrotation Zrotation
												End Site
												{
													OFFSET 0 0 0
												}
											}
										}
									}
								}
							}
						}
						JOINT RightShoulder_virtual
						{
							OFFSET 0.000000 0.000000 0.000000
							CHANNELS 3 Xrotation Yrotation Zrotation
							JOINT RightShoulder
							{
								OFFSET -3.249400 8.794197 -1.372250
								CHANNELS 3 Xrotation Yrotation Zrotation
								JOINT RightShoulder_split
								{
									OFFSET -3.249400 8.794197 -1.372250
									CHANNELS 3 Xrotation Yrotation Zrotation
									JOINT RightArm
									{
										OFFSET -11.953299 -2.279007 -0.146200
										CHANNELS 3 Xrotation Yrotation Zrotation
										JOINT RightForeArm
										{
											OFFSET -18.448900 0.000000 0.000000
											CHANNELS 3 Xrotation Yrotation Zrotation
											JOINT RightHand
											{
												OFFSET -29.527802 0.000000 0.000000
												CHANNELS 3 Xrotation Yrotation Zrotation
												End Site
												{
													OFFSET 0 0 0
												}
											}
										}
									}
								}
							}
						}
					}
				}
			}
		}
	}
}
MOTION
Frames: 8
Frame Time: 0.03333333
1.804881 221.398590 -20.361700 0.000000 0.000000 0.000000 4.119490 -9.776513 2.780836 -85.429281 15.493000 23.040620 88.170243 -1.002412 4.537347 -10.903597 3.871312 -15.343170 -2.886676 -3.552639 12.611517 0.000000 0.000000 0.000000 6.347796 -13.613176 1.420137 -107.074997 6.524755 -7.021384 111.323047 -5.564978 -0.796919 10.032558 -13.842800 20.691071 3.847574 9.257875 10.765426 0.000000 0.000000 0.000000 8.071783 -14.061375 1.916802 6.010455 -1.640059 1.055330 9.979126 -1.399277 -0.644801 1.035044 -2.495490 1.587491 0.000000 0.000000 0.000000 12.769486 -1.424007 -0.164201 -21.988380 1.981936 -1.894505 -0.375037 -4.740497 1.091785 0.000000 0.000000 0.000000 12.722099 -1.492772 -1.174749 1.055855 -13.768992 26.776126 0.803556 9.522597 -6.991452 -57.948855 -21.799582 -10.572812 31.176173 -70.282770 56.316416 0.000000 0.000000 0.000000 12.492201 -1.093930 -0.417767 3.933798 9.338209 -7.454801 6.848744 11.178280 0.009793 -73.832214 35.681806 23.161025 -22.231791 74.997772 -19.082958 0.000000 0.000000 0.000000 
2.194308 222.445038 -21.099401 0.000000 0.000000 0.000000 2.608254 -10.739558 3.328063 -90.645483 12.089633 21.972765 89.159186 -2.105463 2.461853 -10.345076 5.919164 -14.097135 -1.410109 -4.515880 12.731654 0.000000 0.000000 0.000000 4.895634 -14.133412 2.431938 -109.821847 4.138332 -9.137206 105.008961 -3.577096 -1.745195 13.964253 -11.713885 22.295249 1.478754 7.407904 7.053441 0.000000 0.000000 0.000000 7.213478 -14.849349 1.875774 6.630259 -1.677886 1.007984 13.211924 -1.120707 -0.661723 1.360290 -2.237094 1.720368 0.000000 0.000000 0.000000 15.740832 -1.029844 -0.336723 -23.850964 3.002588 -1.836268 2.093129 -5.300847 2.807618 0.000000 0.000000 0.000000 15.618325 -1.156687 -1.497157 2.628397 -16.148300 29.613846 0.017317 6.267335 -6.194073 -57.494613 -18.756435 -7.349359 17.195759 -66.301459 47.520505 0.000000 0.000000 0.000000 15.407182 -0.655335 -0.605166 4.444497 9.788342 -9.929132 7.988807 11.199855 -1.025106 -82.472642 35.677821 27.465306 -39.243060 75.746238 -3.320144 0.000000 0.000000 0.000000 
2.254720 223.325684 -21.091883 0.000000 0.000000 0.000000 1.255085 -10.718954 3.903415 -93.053049 9.018204 19.679421 83.327044 -3.290771 1.322854 -8.446653 7.420761 -11.567643 0.670685 -5.039299 11.259245 0.000000 0.000000 0.000000 3.831331 -13.895523 3.417431 -109.365747 0.801348 -11.217148 93.619081 -1.966761 -2.502260 17.911944 -8.103424 21.793872 -1.034445 6.793514 3.922406 0.000000 0.000000 0.000000 6.232759 -15.018220 1.792010 6.388169 -1.325962 1.043101 16.260681 -0.721391 -0.758801 1.440806 -2.542604 1.900284 0.000000 0.000000 0.000000 18.542905 -0.494654 -0.571229 -24.519005 3.966005 -1.898058 5.384163 -6.094999 4.793069 0.000000 0.000000 0.000000 18.396271 -0.746345 -1.733042 3.922190 -17.641590 31.419881 -1.348640 2.600645 -4.709643 -60.318958 -17.723555 -5.361810 7.197526 -61.268149 42.493701 0.000000 0.000000 0.000000 18.100090 -0.118661 -0.750766 5.300196 11.087767 -12.700061 8.928715 11.148026 -1.804489 -89.027787 36.835354 28.653187 -43.967379 70.955769 0.529267 0.000000 0.000000 0.000000 
1.978046 223.629990 -20.510256 0.000000 0.000000 0.000000 -0.181889 -9.672107 4.384858 -93.049539 6.801096 16.813016 71.917876 -4.702505 0.960707 -5.568064 8.366108 -8.336046 2.239548 -5.299805 8.408257 0.000000 0.000000 0.000000 2.475800 -13.895758 4.041611 -106.722532 -3.189876 -13.215057 77.952635 -1.240072 -2.542493 21.760462 -4.796391 18.756290 -3.419368 7.235581 2.314147 0.000000 0.000000 0.000000 4.947763 -14.709873 1.757591 5.743187 -0.825400 1.162164 18.892862 -0.308259 -0.872132 1.108579 -2.446843 1.708572 0.000000 0.000000 0.000000 20.833723 0.060431 -0.781534 -23.908387 4.914208 -2.149368 8.938120 -6.935123 6.690690 0.000000 0.000000 0.000000 20.805753 -0.310589 -1.840444 4.678348 -17.989240 32.317061 -2.497679 -0.756162 -2.957225 -64.961335 -18.373931 -3.800262 -1.314452 -55.108005 38.541204 0.000000 0.000000 0.000000 20.283997 0.361111 -0.801666 6.677296 12.742791 -16.086415 9.115594 10.515797 -2.126265 -91.110571 39.213482 25.559420 -41.454686 62.396981 -2.663706 0.000000 0.000000 0.000000 
1.304128 222.613800 -19.585386 0.000000 0.000000 0.000000 -2.035675 -8.315320 4.793339 -91.530655 6.091915 14.434367 58.495707 -5.965533 0.952971 -3.072818 8.983366 -3.695396 2.029515 -5.517846 4.638311 0.000000 0.000000 0.000000 0.721445 -13.485380 4.272969 -102.908637 -7.162603 -15.039947 62.316727 -0.737963 -2.419086 24.814168 -2.058094 14.811246 -7.776636 8.166902 2.518560 0.000000 0.000000 0.000000 3.023358 -13.982224 1.973554 5.259085 -0.359652 1.235771 20.883239 0.063081 -0.927127 0.651342 -2.300121 1.357675 0.000000 0.000000 0.000000 22.334529 0.546990 -0.894021 -22.145307 5.716880 -2.619242 12.275079 -7.568489 8.180162 0.000000 0.000000 0.000000 22.668199 0.081568 -1.762640 4.945871 -17.192356 32.742926 -2.707918 -2.707886 -1.754670 -69.726369 -20.314202 -2.789172 -9.841636 -47.750450 33.872373 0.000000 0.000000 0.000000 21.765154 0.703066 -0.758861 8.623717 14.412804 -19.971681 8.818864 9.230989 -1.901691 -88.149827 40.810998 18.154178 -39.529361 53.347677 -5.061299 0.000000 0.000000 0.000000 
0.463745 219.789444 -18.322435 0.000000 0.000000 0.000000 -4.381785 -7.346665 5.161927 -89.107795 6.950799 13.008754 47.116421 -7.192357 1.351146 -2.162098 8.913500 2.051899 -2.443844 -5.654376 1.075809 0.000000 0.000000 0.000000 -1.607921 -12.575276 4.256794 -99.051506 -10.566335 -16.822717 52.064049 -0.109122 -2.250681 26.548795 0.227644 10.891834 -15.313375 9.043736 4.254633 0.000000 0.000000 0.000000 0.439366 -13.337002 2.474045 5.399481 -0.107688 1.160692 22.108105 0.360753 -0.899631 0.375441 -2.106478 1.036113 0.000000 0.000000 0.000000 23.102958 0.875984 -0.888267 -19.574284 6.300400 -3.168168 14.939668 -7.962361 9.080223 0.000000 0.000000 0.000000 23.834124 0.385005 -1.537906 4.760879 -15.629404 32.719550 -2.192041 -3.276945 -1.378685 -72.452502 -21.984543 -1.947103 -18.083235 -40.398899 28.288403 0.000000 0.000000 0.000000 22.486931 0.868157 -0.605199 10.906157 15.568146 -24.523905 7.997497 8.231228 -1.132290 -81.581009 38.938062 8.259429 -39.562313 47.727227 -4.846250 0.000000 0.000000 0.000000 
-0.490707 215.404892 -16.894655 0.000000 0.000000 0.000000 -7.317946 -6.846674 5.447342 -86.546673 9.425658 13.007335 40.635060 -8.440488 1.983164 -4.123368 7.547172 8.410125 -11.143306 -5.542078 -1.513786 0.000000 0.000000 0.000000 -4.641642 -11.348797 4.164860 -96.725833 -12.967850 -18.864895 50.312348 0.633029 -2.099643 26.124475 1.760625 7.505134 -24.988525 9.262578 7.003219 0.000000 0.000000 0.000000 -2.771821 -12.954407 2.968794 6.177724 -0.100492 0.913114 22.548847 0.576631 -0.783283 0.453083 -1.885028 0.870139 0.000000 0.000000 0.000000 23.215241 1.068427 -0.809607 -16.625690 6.625224 -3.649981 16.645656 -7.921981 9.270229 0.000000 0.000000 0.000000 24.263946 0.594124 -1.240172 4.434206 -13.957193 32.851448 -0.984161 -2.648565 -1.532747 -72.750408 -22.875974 -1.058293 -25.888312 -33.324472 21.742560 0.000000 0.000000 0.000000 22.555892 0.904279 -0.427055 13.219515 15.922225 -29.719406 6.953775 7.649139 -0.139247 -74.972896 33.216282 -1.016866 -41.505106 46.123434 -2.094090 0.000000 0.000000 0.000000 
-1.345715 210.212982 -15.302401 0.000000 0.000000 0.000000 -10.629159 -6.745783 5.686506 -84.694052 12.958395 14.525044 40.339610 -9.656999 2.721797 -8.496433 4.712562 14.218894 -21.296414 -5.216776 -2.841985 0.000000 0.000000 0.000000 -8.212110 -9.564958 4.084997 -96.613415 -14.453896 -21.346670 56.469491 1.416068 -2.027159 22.975945 2.655924 4.469473 -33.651464 8.745599 9.940309 0.000000 0.000000 0.000000 -6.176043 -12.746428 3.360422 7.352448 -0.255284 0.616826 22.308182 0.735758 -0.617299 0.754290 -2.010158 0.806321 0.000000 0.000000 0.000000 22.962824 1.141502 -0.730071 -13.722835 6.627381 -3.843952 17.283025 -7.473219 8.853537 0.000000 0.000000 0.000000 24.089273 0.705077 -0.901437 4.267017 -12.718975 33.495121 0.686526 -1.459546 -1.914215 -71.096969 -22.826380 -0.049111 -32.366108 -26.937860 14.896084 0.000000 0.000000 0.000000 22.156024 0.874789 -0.276204 15.243560 15.672537 -35.226438 6.371727 7.792223 0.697174 -71.286589 25.007793 -7.102568 -44.458050 46.183779 1.917210 0.000000 0.000000 0.000000 
